<svg width="24" height="24" viewBox="0 0 24 24" fill="none" xmlns="http://www.w3.org/2000/svg">
<path fill-rule="evenodd" clip-rule="evenodd" d="M13.7678 5.73223C13.2989 5.26339 12.663 5 12 5C11.337 5 10.7011 5.26339 10.2322 5.73223C9.76339 6.20107 9.5 6.83696 9.5 7.5C9.5 8.16304 9.76339 8.79893 10.2322 9.26777C10.7011 9.73661 11.337 10 12 10C12.663 10 13.2989 9.73661 13.7678 9.26777C14.2366 8.79893 14.5 8.16304 14.5 7.5C14.5 6.83696 14.2366 6.20107 13.7678 5.73223ZM17.4703 17.3565C16.1742 16.7085 14.2433 16.25 12 16.25C9.75666 16.25 7.82575 16.7085 6.52974 17.3565C5.11462 18.0641 5 18.672 5 18.75C5 18.8881 5.11193 19 5.25 19H18.75C18.8881 19 19 18.8881 19 18.75C19 18.672 18.8854 18.0641 17.4703 17.3565ZM15.182 4.31802C14.3381 3.47411 13.1935 3 12 3C10.8065 3 9.66193 3.47411 8.81802 4.31802C7.97411 5.16193 7.5 6.30653 7.5 7.5C7.5 8.69347 7.97411 9.83807 8.81802 10.682C9.66193 11.5259 10.8065 12 12 12C13.1935 12 14.3381 11.5259 15.182 10.682C16.0259 9.83807 16.5 8.69347 16.5 7.5C16.5 6.30653 16.0259 5.16193 15.182 4.31802ZM21 18.75C21 16.2638 16.9725 14.25 12 14.25C7.0275 14.25 3 16.2638 3 18.75C3 19.9926 4.00736 21 5.25 21H18.75C19.9926 21 21 19.9926 21 18.75Z" fill="#1A1A1A"/>
</svg>
