<svg width="19" height="19" viewBox="0 0 19 19" fill="none" xmlns="http://www.w3.org/2000/svg">
<path fill-rule="evenodd" clip-rule="evenodd" d="M14.2719 12.3558L16.8119 12.6458C17.8219 12.7658 18.5819 13.6158 18.5719 14.6258L18.3876 16.936C18.3876 18.066 17.4476 19.006 16.3176 18.936C14.5096 18.8237 12.7781 18.4288 11.1667 17.7949C10.8091 17.6542 10.4574 17.5017 10.1121 17.338C6.55983 15.6533 3.68457 12.7728 2.00759 9.21444C1.84368 8.86664 1.69122 8.51237 1.55069 8.1521C0.927303 6.55394 0.538764 4.83784 0.427563 3.04604C0.357563 1.91604 1.29756 0.976035 2.42756 0.976035L4.92938 0.763245C5.94938 0.763245 6.79938 1.52324 6.91938 2.53324L7.20938 5.05324C7.27938 5.66324 7.06938 6.26324 6.63938 6.69324L4.01756 8.75603C5.45756 11.596 7.77756 13.906 10.6076 15.346L12.6319 12.9258C13.0619 12.4958 13.6619 12.2858 14.2719 12.3558ZM14.0532 14.3438L16.5652 14.6306L16.3876 16.8564V16.936C16.3876 16.9359 16.3876 16.9362 16.3876 16.936C15.0459 16.8478 13.7523 16.5835 12.5297 16.1653L14.0532 14.3438ZM5.22052 5.26476L4.93344 2.77012L2.51246 2.97603H2.42756C2.42743 2.97603 2.42769 2.97603 2.42756 2.97603C2.51608 4.32448 2.78239 5.624 3.20394 6.85136L5.22052 5.26476Z" fill="#1A1A1A"/>
</svg>
