<svg width="24" height="24" viewBox="0 0 24 24" fill="none" xmlns="http://www.w3.org/2000/svg">
<path fill-rule="evenodd" clip-rule="evenodd" d="M11.2009 4.9H6.31638L5.46562 1.74003C5.34807 1.30341 4.95216 1 4.5 1H1C0.447715 1 0 1.44772 0 2C0 2.55228 0.447715 3 1 3H3.73362L4.57943 6.14157L6.30128 13.669C6.61327 15.0329 7.82662 16 9.22575 16H18.2171C19.6012 16 20.8057 15.0531 21.1324 13.7082L21.5809 11.8616C21.0677 11.9526 20.5394 12 20 12C19.8297 12 19.6605 11.9953 19.4926 11.9859L19.1889 13.236C19.08 13.6844 18.6785 14 18.2171 14H9.22575C8.75937 14 8.35492 13.6776 8.25093 13.223L6.80457 6.9H11.8866C11.5835 6.27055 11.3514 5.60041 11.2009 4.9ZM21.842 10.7869L22.9717 6.13605C23.0442 5.83796 22.9757 5.52312 22.7861 5.28196C22.5966 5.0408 22.3068 4.9 22 4.9H12.227C12.3995 5.60827 12.6663 6.27962 13.0134 6.9H20.728L19.7331 10.9956C19.8217 10.9985 19.9107 11 20 11C20.6339 11 21.2506 10.9263 21.842 10.7869Z" fill="#1A1A1A"/>
<path d="M10 21.5C10 22.3284 9.32843 23 8.5 23C7.67157 23 7 22.3284 7 21.5C7 20.6716 7.67157 20 8.5 20C9.32843 20 10 20.6716 10 21.5Z" fill="#1A1A1A"/>
<path d="M20 21.5C20 22.3284 19.3284 23 18.5 23C17.6716 23 17 22.3284 17 21.5C17 20.6716 17.6716 20 18.5 20C19.3284 20 20 20.6716 20 21.5Z" fill="#1A1A1A"/>
<path fill-rule="evenodd" clip-rule="evenodd" d="M8.55466 14.1679C9.01419 14.4743 9.13836 15.0952 8.83201 15.5547L7.86848 17L20 17C20.5522 17 21 17.4477 21 18C21 18.5523 20.5522 19 20 19H7.86848C6.27109 19 5.3183 17.2197 6.20437 15.8906L7.16791 14.4453C7.47426 13.9858 8.09513 13.8616 8.55466 14.1679Z" fill="#1A1A1A"/>
</svg>
