<svg width="14" height="13" viewBox="0 0 14 13" fill="none" xmlns="http://www.w3.org/2000/svg">
<path d="M6.52772 0.358723C6.60556 0.134789 6.80285 0.0228441 7.00012 0.0228882C7.19731 0.0229323 7.39448 0.134877 7.47229 0.358723L8.76668 4.08253C8.83535 4.28007 9.01969 4.414 9.22878 4.41826L13.1703 4.49859C13.6443 4.50825 13.84 5.11052 13.4622 5.39692L10.3206 7.77868C10.154 7.90503 10.0836 8.12174 10.1441 8.32191L11.2858 12.0954C11.423 12.5491 10.9107 12.9213 10.5216 12.6506L7.2856 10.3988C7.1998 10.3391 7.09996 10.3092 7.00012 10.3092C6.9002 10.3092 6.80028 10.339 6.71442 10.3988L3.47843 12.6506C3.08931 12.9213 2.57698 12.5491 2.71426 12.0954L3.85587 8.32191C3.91643 8.12174 3.84602 7.90503 3.67937 7.77868L0.537805 5.39692C0.160039 5.11052 0.355729 4.50825 0.829691 4.49859L4.77123 4.41826C4.98032 4.414 5.16467 4.28007 5.23333 4.08253L6.52772 0.358723Z" fill="#CDC9CF"/>
<path d="M3.13944 12.6276L6.37542 10.3758C6.46129 10.3161 6.56121 10.2862 6.66113 10.2862V1.29655e-08C6.46386 -4.3987e-05 6.26657 0.111901 6.18873 0.335835L4.89434 4.05965C4.82567 4.25718 4.64133 4.39112 4.43224 4.39538L0.490701 4.4757C0.0167395 4.48536 -0.178951 5.08763 0.198815 5.37403L3.34038 7.7558C3.50703 7.88214 3.57744 8.09885 3.51688 8.29902L2.37527 12.0724C2.23799 12.5262 2.75031 12.8984 3.13944 12.6276Z" fill="#FFA300"/>
</svg>
