<?xml version="1.0" encoding="utf-8"?><svg xmlns="http://www.w3.org/2000/svg" xmlns:xlink="http://www.w3.org/1999/xlink">

<svg id="sofa" viewBox="0 0 28 28" fill="none" xmlns="http://www.w3.org/2000/svg">
<path d="M6 21C6 20.4477 6.44772 20 7 20C7.55228 20 8 20.4477 8 21V23C8 23.5523 7.55228 24 7 24C6.44772 24 6 23.5523 6 23V21Z" fill="#1A1A1A"/>
<path d="M20 21C20 20.4477 20.4477 20 21 20C21.5523 20 22 20.4477 22 21V23C22 23.5523 21.5523 24 21 24C20.4477 24 20 23.5523 20 23V21Z" fill="#1A1A1A"/>
<path fill-rule="evenodd" clip-rule="evenodd" d="M7 17V14.5C7 13.6716 6.32843 13 5.5 13C4.67157 13 4 13.6716 4 14.5V20H24V14.5C24 13.6716 23.3284 13 22.5 13C21.6716 13 21 13.6716 21 14.5V17H7ZM9 15V14.5C9 12.567 7.433 11 5.5 11C3.567 11 2 12.567 2 14.5V21C2 21.5523 2.44772 22 3 22H25C25.5523 22 26 21.5523 26 21V14.5C26 12.567 24.433 11 22.5 11C20.567 11 19 12.567 19 14.5V15H9Z" fill="#1A1A1A"/>
<path fill-rule="evenodd" clip-rule="evenodd" d="M4 7C4 5.89543 4.89543 5 6 5H22C23.1046 5 24 5.89543 24 7V12H22V7H6V12H4V7Z" fill="#1A1A1A"/>
</svg>

<svg id="closet" viewBox="0 0 28 28" fill="none" xmlns="http://www.w3.org/2000/svg">
<path d="M0 4C0 1.79086 1.79086 0 4 0H24C26.2091 0 28 1.79086 28 4V24C28 26.2091 26.2091 28 24 28H4C1.79086 28 0 26.2091 0 24V4Z" fill="white"/>
<path d="M6 23C6 22.4477 6.44772 22 7 22C7.55228 22 8 22.4477 8 23V25C8 25.5523 7.55228 26 7 26C6.44772 26 6 25.5523 6 25V23Z" fill="#1A1A1A"/>
<path d="M20 23C20 22.4477 20.4477 22 21 22C21.5523 22 22 22.4477 22 23V25C22 25.5523 21.5523 26 21 26C20.4477 26 20 25.5523 20 25V23Z" fill="#1A1A1A"/>
<path fill-rule="evenodd" clip-rule="evenodd" d="M23 5H5L5 22H23V5ZM5 3C3.89543 3 3 3.89543 3 5V22C3 23.1046 3.89543 24 5 24H23C24.1046 24 25 23.1046 25 22V5C25 3.89543 24.1046 3 23 3H5Z" fill="#1A1A1A"/>
<path d="M13 5H15V24H13V5Z" fill="#1A1A1A"/>
<path d="M17 13H18C18.5523 13 19 13.4477 19 14V17C19 17.5523 18.5523 18 18 18H17V13Z" fill="#1A1A1A"/>
<path d="M11 13H10C9.44772 13 9 13.4477 9 14V17C9 17.5523 9.44772 18 10 18H11V13Z" fill="#1A1A1A"/>
</svg>

<svg id="kitchen" viewBox="0 0 28 28" fill="none" xmlns="http://www.w3.org/2000/svg">
<path d="M0 4C0 1.79086 1.79086 0 4 0H24C26.2091 0 28 1.79086 28 4V24C28 26.2091 26.2091 28 24 28H4C1.79086 28 0 26.2091 0 24V4Z" fill="white"/>
<path d="M6 25V22H4V25C4 25.5523 4.44772 26 5 26C5.55228 26 6 25.5523 6 25Z" fill="#1A1A1A"/>
<path d="M11 25V22H9V25C9 25.5523 9.44772 26 10 26C10.5523 26 11 25.5523 11 25Z" fill="#1A1A1A"/>
<path d="M19 25V22H17V25C17 25.5523 17.4477 26 18 26C18.5523 26 19 25.5523 19 25Z" fill="#1A1A1A"/>
<path d="M24 25V22H22V25C22 25.5523 22.4477 26 23 26C23.5523 26 24 25.5523 24 25Z" fill="#1A1A1A"/>
<path fill-rule="evenodd" clip-rule="evenodd" d="M4 14V22H24V14H4ZM3 12C2.44772 12 2 12.4477 2 13V23C2 23.5523 2.44772 24 3 24H25C25.5523 24 26 23.5523 26 23V13C26 12.4477 25.5523 12 25 12H3Z" fill="#1A1A1A"/>
<path fill-rule="evenodd" clip-rule="evenodd" d="M17 17C16.4477 17 16 17.4477 16 18C16 18.5523 16.4477 19 17 19H21C21.5523 19 22 18.5523 22 18C22 17.4477 21.5523 17 21 17H17Z" fill="#1A1A1A"/>
<path d="M7 16C7 15.4477 7.44772 15 8 15H10C10.5523 15 11 15.4477 11 16C11 16.5523 10.5523 17 10 17H8C7.44772 17 7 16.5523 7 16Z" fill="#1A1A1A"/>
<path fill-rule="evenodd" clip-rule="evenodd" d="M18.4 3V4C18.4 4.82103 18.0635 5.60619 17.469 6.17241L16.6 7H23.4L22.531 6.17241C21.9365 5.60619 21.6 4.82103 21.6 4V3H18.4ZM17.4 1C16.8477 1 16.4 1.44771 16.4 2V4C16.4 4.27368 16.2878 4.5354 16.0897 4.72414L14.3103 6.41872C14.1122 6.60746 14 6.86918 14 7.14286V8C14 8.55229 14.4477 9 15 9H25C25.5523 9 26 8.55228 26 8V7.14286C26 6.86918 25.8878 6.60746 25.6897 6.41872L23.9103 4.72414C23.7122 4.5354 23.6 4.27368 23.6 4V2C23.6 1.44772 23.1523 1 22.6 1H17.4Z" fill="#1A1A1A"/>
<path d="M6 11C6 10.4477 6.44772 10 7 10H11C11.5523 10 12 10.4477 12 11C12 11.5523 11.5523 12 11 12H7C6.44772 12 6 11.5523 6 11Z" fill="#1A1A1A"/>
</svg>

<svg id="room" viewBox="0 0 28 28" fill="none" xmlns="http://www.w3.org/2000/svg">
<path d="M0 4C0 1.79086 1.79086 0 4 0H24C26.2091 0 28 1.79086 28 4V24C28 26.2091 26.2091 28 24 28H4C1.79086 28 0 26.2091 0 24V4Z" fill="white"/>
<path fill-rule="evenodd" clip-rule="evenodd" d="M11 6H4V23H11V6ZM4 4C2.89543 4 2 4.89543 2 6V23C2 24.1046 2.89543 25 4 25H11C12.1046 25 13 24.1046 13 23V6C13 4.89543 12.1046 4 11 4H4Z" fill="#1A1A1A"/>
<path d="M11 13H10C9.44772 13 9 13.4477 9 14V17C9 17.5523 9.44772 18 10 18H11V13Z" fill="#1A1A1A"/>
<path d="M16 22C16 21.4477 16.4477 21 17 21C17.5523 21 18 21.4477 18 22V24C18 24.5523 17.5523 25 17 25C16.4477 25 16 24.5523 16 24V22Z" fill="#1A1A1A"/>
<path d="M23 22C23 21.4477 23.4477 21 24 21C24.5523 21 25 21.4477 25 22V24C25 24.5523 24.5523 25 24 25C23.4477 25 23 24.5523 23 24V22Z" fill="#1A1A1A"/>
<path fill-rule="evenodd" clip-rule="evenodd" d="M17 18V21H24V18H17ZM16 16C15.4477 16 15 16.4477 15 17V22C15 22.5523 15.4477 23 16 23H25C25.5523 23 26 22.5523 26 22V17C26 16.4477 25.5523 16 25 16H16Z" fill="#1A1A1A"/>
<path d="M15 10C15 9.44772 15.4477 9 16 9H22C22.5523 9 23 9.44772 23 10C23 10.5523 22.5523 11 22 11H16C15.4477 11 15 10.5523 15 10Z" fill="#1A1A1A"/>
<path d="M18 6C18 5.44772 18.4477 5 19 5H25C25.5523 5 26 5.44772 26 6C26 6.55228 25.5523 7 25 7H19C18.4477 7 18 6.55228 18 6Z" fill="#1A1A1A"/>
</svg>

<svg id="bedroom" viewBox="0 0 28 28" fill="none" xmlns="http://www.w3.org/2000/svg">
<path d="M0 4C0 1.79086 1.79086 0 4 0H24C26.2091 0 28 1.79086 28 4V24C28 26.2091 26.2091 28 24 28H4C1.79086 28 0 26.2091 0 24V4Z" fill="white"/>
<path fill-rule="evenodd" clip-rule="evenodd" d="M23 6H5V14H23V6ZM5 4C3.89543 4 3 4.89543 3 6V16H25V6C25 4.89543 24.1046 4 23 4H5Z" fill="#1A1A1A"/>
<path d="M5 21C5 20.4477 5.44772 20 6 20C6.55228 20 7 20.4477 7 21V24C7 24.5523 6.55228 25 6 25C5.44772 25 5 24.5523 5 24V21Z" fill="#1A1A1A"/>
<path d="M21 21C21 20.4477 21.4477 20 22 20C22.5523 20 23 20.4477 23 21V24C23 24.5523 22.5523 25 22 25C21.4477 25 21 24.5523 21 24V21Z" fill="#1A1A1A"/>
<path fill-rule="evenodd" clip-rule="evenodd" d="M13 13C13 12.4477 12.5523 12 12 12H8C7.44772 12 7 12.4477 7 13V14H13V13Z" fill="#1A1A1A"/>
<path fill-rule="evenodd" clip-rule="evenodd" d="M21 13C21 12.4477 20.5523 12 20 12H16C15.4477 12 15 12.4477 15 13V14H21V13Z" fill="#1A1A1A"/>
<path fill-rule="evenodd" clip-rule="evenodd" d="M3 16V20H25V16H3ZM2 14C1.44772 14 1 14.4477 1 15V21C1 21.5523 1.44772 22 2 22H26C26.5523 22 27 21.5523 27 21V15C27 14.4477 26.5523 14 26 14H2Z" fill="#1A1A1A"/>
</svg>

<svg id="hall" viewBox="0 0 28 28" fill="none" xmlns="http://www.w3.org/2000/svg">
<path d="M0 4C0 1.79086 1.79086 0 4 0H24C26.2091 0 28 1.79086 28 4V24C28 26.2091 26.2091 28 24 28H4C1.79086 28 0 26.2091 0 24V4Z" fill="white"/>
<path d="M21 13C21 12.4477 21.4477 12 22 12C22.5523 12 23 12.4477 23 13V16C23 16.5523 22.5523 17 22 17C21.4477 17 21 16.5523 21 16V13Z" fill="#1A1A1A"/>
<path d="M17 8H25V10H17V8Z" fill="#1A1A1A"/>
<path d="M17 19H25V21H17V19Z" fill="#1A1A1A"/>
<path fill-rule="evenodd" clip-rule="evenodd" d="M3 3C1.89543 3 1 3.89543 1 5V23C1 24.1046 1.89543 25 3 25H25C26.1046 25 27 24.1046 27 23V5C27 3.89543 26.1046 3 25 3H3ZM24 5H19V23H24C24.5523 23 25 22.5523 25 22V6C25 5.44772 24.5523 5 24 5ZM11 5H17V23H11V5ZM9 5H3V23H9V5Z" fill="#1A1A1A"/>
</svg>

<svg id="child" viewBox="0 0 28 28" fill="none" xmlns="http://www.w3.org/2000/svg">
<path d="M0 4C0 1.79086 1.79086 0 4 0H24C26.2091 0 28 1.79086 28 4V24C28 26.2091 26.2091 28 24 28H4C1.79086 28 0 26.2091 0 24V4Z" fill="white"/>
<path fill-rule="evenodd" clip-rule="evenodd" d="M4.63003 15.9836C4.89676 15.9121 5.05505 15.6379 4.98358 15.3712C4.91211 15.1045 4.63794 14.9462 4.37121 15.0177C4.10448 15.0891 3.94619 15.3633 4.01766 15.63C4.08913 15.8968 4.3633 16.0551 4.63003 15.9836ZM5.14767 17.9154C6.48133 17.5581 7.27279 16.1872 6.91544 14.8536C6.55808 13.5199 5.18724 12.7285 3.85357 13.0858C2.51991 13.4432 1.72845 14.814 2.08581 16.1477C2.44316 17.4813 3.814 18.2728 5.14767 17.9154Z" fill="#1A1A1A"/>
<path fill-rule="evenodd" clip-rule="evenodd" d="M23.63 15.9836C23.8968 15.9121 24.0551 15.6379 23.9836 15.3712C23.9121 15.1045 23.6379 14.9462 23.3712 15.0177C23.1045 15.0891 22.9462 15.3633 23.0177 15.63C23.0891 15.8968 23.3633 16.0551 23.63 15.9836ZM24.1477 17.9154C25.4813 17.5581 26.2728 16.1872 25.9154 14.8536C25.5581 13.5199 24.1872 12.7285 22.8536 13.0858C21.5199 13.4432 20.7285 14.814 21.0858 16.1477C21.4432 17.4813 22.814 18.2728 24.1477 17.9154Z" fill="#1A1A1A"/>
<path d="M25 14C25 20.0751 20.0751 25 14 25C7.92487 25 3 20.0751 3 14C3 7.92487 7.92487 3 14 3C20.0751 3 25 7.92487 25 14Z" fill="white"/>
<path fill-rule="evenodd" clip-rule="evenodd" d="M14 23C18.9706 23 23 18.9706 23 14C23 9.02944 18.9706 5 14 5C9.02944 5 5 9.02944 5 14C5 18.9706 9.02944 23 14 23ZM14 25C20.0751 25 25 20.0751 25 14C25 7.92487 20.0751 3 14 3C7.92487 3 3 7.92487 3 14C3 20.0751 7.92487 25 14 25Z" fill="#1A1A1A"/>
<path fill-rule="evenodd" clip-rule="evenodd" d="M18.5852 18.0932C18.9242 18.5292 18.8456 19.1574 18.4096 19.4964C17.1613 20.4671 15.6276 20.9987 14.0463 21.0089C12.465 21.019 10.9246 20.5071 9.66392 19.5526C9.22362 19.2192 9.13694 18.592 9.47033 18.1517C9.80372 17.7114 10.4309 17.6247 10.8712 17.9581C11.7809 18.6469 12.8925 19.0163 14.0335 19.0089C15.1745 19.0016 16.2812 18.618 17.1819 17.9176C17.6179 17.5786 18.2462 17.6572 18.5852 18.0932Z" fill="#1A1A1A"/>
<path d="M20 14.5C20 15.3284 19.3284 16 18.5 16C17.6716 16 17 15.3284 17 14.5C17 13.6716 17.6716 13 18.5 13C19.3284 13 20 13.6716 20 14.5Z" fill="#1A1A1A"/>
<path d="M11 14.5C11 15.3284 10.3284 16 9.5 16C8.67157 16 8 15.3284 8 14.5C8 13.6716 8.67157 13 9.5 13C10.3284 13 11 13.6716 11 14.5Z" fill="#1A1A1A"/>
<path d="M7.00397 11.5833C0.052177 11.5833 2.37148 4.6282 2.37148 4.6282C2.37148 4.6282 4.305 6.5 6.5 6.5C7.49603 6.5 10 3.5 15 3.5C24.2648 3.5 24 12 24 12L20 9C20 9 13.9558 11.5833 7.00397 11.5833Z" fill="white"/>
<path fill-rule="evenodd" clip-rule="evenodd" d="M8.76979 4.12203C10.2439 3.31828 12.2852 2.5 15 2.5C17.474 2.5 19.384 3.06929 20.8439 3.97956C22.3021 4.88874 23.251 6.10049 23.8638 7.29297C24.4733 8.47925 24.7546 9.65372 24.8855 10.523C24.9513 10.9601 24.98 11.3266 24.9922 11.5881C24.9983 11.7191 25.0003 11.8242 25.0007 11.8994C25.0009 11.9369 25.0007 11.9671 25.0004 11.9892L24.9999 12.0163L24.9997 12.0253L24.9996 12.0286L24.9995 12.03C24.9995 12.0306 24.9995 12.0311 24 12L24.9995 12.0311L24.9396 13.9547L19.8485 10.1364C19.6917 10.1963 19.5029 10.2666 19.2846 10.3449C18.5883 10.5947 17.5901 10.9259 16.3708 11.2568C13.9379 11.9169 10.5967 12.5833 7.00397 12.5833C5.10055 12.5833 3.68658 12.1051 2.69629 11.2556C1.70779 10.4077 1.26498 9.29587 1.09435 8.26981C0.925036 7.25164 1.01253 6.26233 1.13135 5.55034C1.19158 5.18944 1.26193 4.88775 1.31807 4.67354C1.3462 4.56619 1.37094 4.48013 1.38934 4.41883C1.39855 4.38816 1.40618 4.36363 1.41188 4.34567L1.41894 4.3237L1.4213 4.31649L1.42217 4.31385L1.42253 4.31277C1.42269 4.3123 1.42284 4.31186 2.37148 4.6282L1.42253 4.31277L1.92546 2.80459L3.06564 3.90837C3.06576 3.90849 3.06545 3.9082 3.06564 3.90837L3.07583 3.91796C3.08581 3.92727 3.10265 3.9428 3.12595 3.96366C3.1726 4.00544 3.24477 4.06826 3.33921 4.14515C3.52901 4.29966 3.80379 4.50684 4.13805 4.71326C4.81107 5.12889 5.6322 5.48362 6.4437 5.49945C6.45964 5.49341 6.48432 5.48329 6.5188 5.46699C6.63691 5.41117 6.79464 5.3202 7.01768 5.18171C7.11249 5.12283 7.21684 5.05671 7.32983 4.98511C7.71914 4.73841 8.21112 4.42665 8.76979 4.12203ZM3.03635 6.38332C2.98705 6.86935 2.97938 7.41329 3.06726 7.94173C3.18578 8.65445 3.4666 9.28139 3.99842 9.73757C4.52846 10.1922 5.4315 10.5833 7.00397 10.5833C10.3631 10.5833 13.5198 9.95807 15.847 9.32657C17.0078 9.01159 17.9551 8.69701 18.6094 8.46236C18.9363 8.34508 19.1897 8.24794 19.3594 8.18092C19.4442 8.14741 19.5081 8.12145 19.5498 8.10429L19.5955 8.0853L19.6056 8.08106L19.607 8.08047L20.138 7.85351L22.6845 9.76337C22.549 9.26926 22.3568 8.73627 22.0849 8.20703C21.6057 7.27451 20.8837 6.36126 19.7858 5.67669C18.6896 4.99321 17.1584 4.5 15 4.5C12.7148 4.5 11.0042 5.18172 9.72723 5.87797C9.23232 6.14782 8.81698 6.41088 8.43447 6.65314C8.31099 6.73135 8.19093 6.80739 8.07272 6.88079C7.84282 7.02355 7.60245 7.16695 7.37345 7.27519C7.16114 7.37554 6.84998 7.5 6.5 7.5C5.13473 7.5 3.9141 6.9256 3.08718 6.41494C3.07011 6.40439 3.05317 6.39385 3.03635 6.38332Z" fill="#1A1A1A"/>
</svg>

<svg id="table" viewBox="0 0 28 28" fill="none" xmlns="http://www.w3.org/2000/svg">
<path d="M0 4C0 1.79086 1.79086 0 4 0H24C26.2091 0 28 1.79086 28 4V24C28 26.2091 26.2091 28 24 28H4C1.79086 28 0 26.2091 0 24V4Z" fill="white"/>
<path d="M1 8C1 7.44772 1.44772 7 2 7H26C26.5523 7 27 7.44772 27 8C27 8.55228 26.5523 9 26 9H2C1.44772 9 1 8.55228 1 8Z" fill="#1A1A1A"/>
<path d="M8 6C8 5.44772 8.44772 5 9 5H14C14.5523 5 15 5.44772 15 6C15 6.55228 14.5523 7 14 7H9C8.44772 7 8 6.55228 8 6Z" fill="#1A1A1A"/>
<path fill-rule="evenodd" clip-rule="evenodd" d="M4.3802 11H23.6198L25.9806 22.8039C26.0889 23.3454 25.7377 23.8723 25.1961 23.9806C24.6546 24.0889 24.1277 23.7377 24.0194 23.1961L21.9802 13H6.0198L3.98058 23.1961C3.87227 23.7377 3.34544 24.0889 2.80388 23.9806C2.26232 23.8723 1.91111 23.3454 2.01942 22.8039L4.3802 11Z" fill="#1A1A1A"/>
<path d="M5 15H24V17H5V15Z" fill="#1A1A1A"/>
</svg>

<svg id="office" viewBox="0 0 28 28" fill="none" xmlns="http://www.w3.org/2000/svg">
<path fill-rule="evenodd" clip-rule="evenodd" d="M14 17.6667C14.5523 17.6667 15 18.1144 15 18.6667L15 25.6667C15 26.2189 14.5523 26.6667 14 26.6667C13.4477 26.6667 13 26.2189 13 25.6667L13 18.6667C13 18.1144 13.4477 17.6667 14 17.6667Z" fill="#1A1A1A"/>
<path fill-rule="evenodd" clip-rule="evenodd" d="M20.8139 24.6961C20.7056 25.2377 20.1788 25.5889 19.6372 25.4806L15.3728 24.6277C14.4666 24.4464 13.5334 24.4464 12.6272 24.6277L8.36278 25.4806C7.82122 25.5889 7.2944 25.2377 7.18609 24.6961C7.07777 24.1546 7.42899 23.6277 7.97055 23.5194L12.235 22.6665C13.4001 22.4335 14.5999 22.4335 15.765 22.6665L20.0294 23.5194C20.571 23.6277 20.9222 24.1546 20.8139 24.6961Z" fill="#1A1A1A"/>
<path fill-rule="evenodd" clip-rule="evenodd" d="M5.55333 13.04C6.08353 12.8853 6.63869 13.1898 6.79333 13.72L7.48604 16.095C7.57865 16.4125 7.84543 16.6486 8.17187 16.7019C12.0317 17.3321 15.9683 17.3321 19.8281 16.7019C20.1546 16.6486 20.4213 16.4125 20.514 16.095L21.2067 13.72C21.3613 13.1898 21.9165 12.8853 22.4467 13.04C22.9769 13.1946 23.2813 13.7498 23.1267 14.28L22.434 16.655C22.1256 17.7122 21.2373 18.4983 20.1504 18.6757C16.0771 19.3408 11.9229 19.3408 7.8496 18.6757C6.7627 18.4983 5.8744 17.7122 5.56604 16.655L4.87333 14.28C4.71869 13.7498 5.02314 13.1946 5.55333 13.04Z" fill="#1A1A1A"/>
<path fill-rule="evenodd" clip-rule="evenodd" d="M18.8264 3.16666H9.1736L10.0342 13.4936C12.6581 13.9522 15.3419 13.9522 17.9658 13.4936L18.8264 3.16666ZM9.1736 1.16666C8.00352 1.16666 7.08334 2.16671 7.18051 3.33275L8.08844 14.2279C8.13477 14.7838 8.54336 15.242 9.09035 15.3514C12.3314 15.9996 15.6686 15.9996 18.9096 15.3514C19.4566 15.242 19.8652 14.7838 19.9116 14.2279L20.8195 3.33275C20.9167 2.16671 19.9965 1.16666 18.8264 1.16666H9.1736Z" fill="#1A1A1A"/>
<path fill-rule="evenodd" clip-rule="evenodd" d="M21.1667 14C21.1667 13.4477 21.6144 13 22.1667 13H23.3333C23.8856 13 24.3333 13.4477 24.3333 14C24.3333 14.5523 23.8856 15 23.3333 15H22.1667C21.6144 15 21.1667 14.5523 21.1667 14Z" fill="#1A1A1A"/>
<path fill-rule="evenodd" clip-rule="evenodd" d="M3.66667 14C3.66667 13.4477 4.11438 13 4.66667 13H5.83333C6.38562 13 6.83333 13.4477 6.83333 14C6.83333 14.5523 6.38562 15 5.83333 15H4.66667C4.11438 15 3.66667 14.5523 3.66667 14Z" fill="#1A1A1A"/>
</svg>

<svg id="rotang" viewBox="0 0 28 28" fill="none" xmlns="http://www.w3.org/2000/svg">
<path fill-rule="evenodd" clip-rule="evenodd" d="M11.8851 24.6646C13.2396 24.6801 14.5801 24.6088 15.7553 24.4609C16.8502 24.3232 17.7191 24.1292 18.3053 23.9167C18.2966 23.9135 18.2878 23.9104 18.279 23.9072C17.6219 23.6732 16.6392 23.4677 15.4189 23.3326C14.2084 23.1987 12.8522 23.1437 11.5037 23.1754C10.154 23.2072 8.88237 23.3243 7.83054 23.509C6.75011 23.6987 6.04026 23.9364 5.69355 24.1418C5.21838 24.4233 4.60499 24.2663 4.3235 23.7911C4.04201 23.316 4.19901 22.7026 4.67418 22.4211C5.34095 22.0261 6.34312 21.7396 7.4846 21.5391C8.65468 21.3336 10.0286 21.2096 11.4566 21.176C12.8858 21.1423 14.3317 21.2001 15.6389 21.3448C16.9363 21.4883 18.089 21.7164 18.9501 22.0232C19.3773 22.1754 19.7751 22.3615 20.091 22.5968C20.3887 22.8185 20.761 23.1963 20.8245 23.7591C20.8926 24.3629 20.5706 24.8163 20.2736 25.0865C19.9779 25.3556 19.5922 25.5586 19.1921 25.7188C18.3815 26.0434 17.2685 26.2863 16.005 26.4453C14.7287 26.6059 13.2964 26.6809 11.8622 26.6644C11.3099 26.6581 10.8674 26.2053 10.8737 25.653C10.88 25.1008 11.3329 24.6582 11.8851 24.6646Z" fill="#1A1A1A"/>
<path fill-rule="evenodd" clip-rule="evenodd" d="M10.6769 1.02399C10.7557 0.477352 11.2627 0.0980959 11.8093 0.176894C13.814 0.465864 15.5157 1.10602 16.9968 2.22439C18.4698 3.33664 19.6644 4.87641 20.7289 6.87257C21.474 8.26971 21.8125 10.0398 21.9369 11.825C22.0625 13.6267 21.9754 15.5329 21.8085 17.2594C21.6412 18.9893 21.3916 20.5606 21.1841 21.6986C21.0803 22.2682 20.9867 22.7309 20.9188 23.0525C20.8848 23.2134 20.8572 23.339 20.8379 23.4253C20.8283 23.4684 20.8207 23.5017 20.8155 23.5246L20.8094 23.5511L20.8072 23.5605C20.8071 23.5608 20.8069 23.5616 19.8333 23.3333L20.8069 23.5616C20.6808 24.0993 20.1427 24.433 19.605 24.3069C19.0674 24.1808 18.7337 23.6428 18.8597 23.1052L18.8611 23.0994L18.866 23.0779L18.8861 22.9891C18.9037 22.9101 18.9297 22.792 18.9619 22.6392C19.0265 22.3335 19.1164 21.8891 19.2166 21.3398C19.4171 20.24 19.6574 18.7262 19.8178 17.0669C19.9786 15.4041 20.057 13.6168 19.9418 11.9641C19.8254 10.295 19.5167 8.84973 18.9642 7.8137C17.9885 5.9841 16.9633 4.70523 15.7916 3.82049C14.628 2.94187 13.2599 2.40666 11.524 2.15643C10.9774 2.07763 10.5981 1.57062 10.6769 1.02399Z" fill="#1A1A1A"/>
<path fill-rule="evenodd" clip-rule="evenodd" d="M11.6667 0.166656C12.219 0.166656 12.6667 0.614372 12.6667 1.16666V5.83332C12.6667 6.38561 12.219 6.83332 11.6667 6.83332C11.1144 6.83332 10.6667 6.38561 10.6667 5.83332V1.16666C10.6667 0.614372 11.1144 0.166656 11.6667 0.166656Z" fill="#1A1A1A"/>
<path d="M11.0833 3.5L12.4343 4.12438C16.3333 5.83333 15.6814 12.3798 14.4541 15.8183C13.371 18.8524 10.0334 20.4341 6.99924 19.3511L3.5 18.0833L11.0833 3.5Z" fill="white"/>
<path fill-rule="evenodd" clip-rule="evenodd" d="M12.4343 4.12438L11.0833 3.5L3.5 18.0833L6.99924 19.3511C10.0334 20.4341 13.371 18.8524 14.4541 15.8183C15.6814 12.3798 16.3333 5.83333 12.4343 4.12438ZM6.32767 16.9806L7.67561 17.469C9.66841 18.1778 11.8592 17.1385 12.5705 15.1459C13.1079 13.6403 13.5186 11.4255 13.3722 9.47232C13.2392 7.69952 12.7106 6.64612 11.9646 6.14024L6.32767 16.9806Z" fill="#1A1A1A"/>
<path d="M11.0826 3.5C14.5825 3.50019 9.14062 20.1985 3.49936 18.0833C-2.14196 15.9681 7.30094 3.49979 11.0826 3.5Z" fill="white"/>
<path fill-rule="evenodd" clip-rule="evenodd" d="M3.83582 15.9481C3.86152 15.999 3.91814 16.1044 4.20152 16.2106C4.50256 16.3235 5.09274 16.3483 6.13134 15.2937C7.13305 14.2766 8.11185 12.6431 8.87258 10.8161C9.63091 8.9949 10.0855 7.19148 10.1723 5.93797C10.1725 5.93613 10.1726 5.9343 10.1727 5.93246C9.78255 6.18142 9.33478 6.5265 8.85058 6.96442C7.66641 8.03543 6.42358 9.51689 5.45001 11.0637C4.45203 12.6494 3.867 14.0979 3.76199 15.1173C3.71161 15.6063 3.78687 15.8511 3.83582 15.9481ZM11.0826 3.5C14.5825 3.50019 9.14062 20.1985 3.49936 18.0833C-2.14196 15.9681 7.30094 3.49979 11.0826 3.5Z" fill="#1A1A1A"/>
</svg>

<svg id="premium" viewBox="0 0 28 28" fill="none" xmlns="http://www.w3.org/2000/svg">
<path d="M15.75 13.4167C15.75 14.3832 14.9665 15.1667 14 15.1667C13.0335 15.1667 12.25 14.3832 12.25 13.4167C12.25 12.4502 13.0335 11.6667 14 11.6667C14.9665 11.6667 15.75 12.4502 15.75 13.4167Z" fill="#1A1A1A"/>
<path fill-rule="evenodd" clip-rule="evenodd" d="M14 14.1667C14.4142 14.1667 14.75 13.8309 14.75 13.4167C14.75 13.0025 14.4142 12.6667 14 12.6667C13.5858 12.6667 13.25 13.0025 13.25 13.4167C13.25 13.8309 13.5858 14.1667 14 14.1667ZM14 15.1667C14.9665 15.1667 15.75 14.3832 15.75 13.4167C15.75 12.4502 14.9665 11.6667 14 11.6667C13.0335 11.6667 12.25 12.4502 12.25 13.4167C12.25 14.3832 13.0335 15.1667 14 15.1667Z" fill="#1A1A1A"/>
<path fill-rule="evenodd" clip-rule="evenodd" d="M1.83719 9.63174C2.31671 9.35773 2.92757 9.52433 3.20158 10.0038L7.6327 17.7583C11.8485 18.4606 16.1515 18.4606 20.3673 17.7583L24.7984 10.0038C25.0724 9.52433 25.6833 9.35773 26.1628 9.63174C26.6423 9.90575 26.8089 10.5166 26.5349 10.9961L22.1023 18.7532C21.8051 19.2732 21.2899 19.6321 20.699 19.7306C16.2636 20.4698 11.7364 20.4698 7.30096 19.7306C6.71012 19.6321 6.19487 19.2732 5.89769 18.7532L1.46509 10.9961C1.19108 10.5166 1.35768 9.90575 1.83719 9.63174ZM20.3659 17.7608C20.3659 17.7608 20.3658 17.7609 20.3658 17.7609L20.3713 17.764L20.3658 17.7609L20.3659 17.7608Z" fill="#1A1A1A"/>
<path fill-rule="evenodd" clip-rule="evenodd" d="M14 2.5C14.5523 2.5 15 2.94772 15 3.5V7C15 7.55228 14.5523 8 14 8C13.4477 8 13 7.55228 13 7V3.5C13 2.94772 13.4477 2.5 14 2.5Z" fill="#1A1A1A"/>
<path fill-rule="evenodd" clip-rule="evenodd" d="M21.1179 4.8976C21.6348 5.0921 21.8962 5.66881 21.7017 6.18571L20.5968 9.12205C20.4023 9.63896 19.8256 9.90032 19.3087 9.70582C18.7918 9.51132 18.5304 8.93461 18.7249 8.41771L19.8298 5.48137C20.0243 4.96446 20.601 4.7031 21.1179 4.8976Z" fill="#1A1A1A"/>
<path fill-rule="evenodd" clip-rule="evenodd" d="M6.88031 4.89741C7.39722 4.70294 7.97391 4.96433 8.16838 5.48125L9.27327 8.41816C9.46774 8.93508 9.20634 9.51176 8.68942 9.70623C8.17251 9.9007 7.59582 9.6393 7.40135 9.12239L6.29646 6.18548C6.102 5.66856 6.36339 5.09187 6.88031 4.89741Z" fill="#1A1A1A"/>
<path fill-rule="evenodd" clip-rule="evenodd" d="M12.9871 5.62309C13.4044 4.78839 14.5956 4.7884 15.0129 5.62309L15.4131 6.42339C16.1077 7.81256 17.8626 8.27861 19.1549 7.41708C19.7798 7.00048 20.6294 7.31277 20.8357 8.03491L21 8.60992C21.4465 10.1726 22.8748 11.25 24.5 11.25V13.25C22.1377 13.25 20.0438 11.7809 19.2226 9.60003C17.3293 10.2583 15.185 9.59845 14 7.942C12.815 9.59845 10.6707 10.2583 8.77742 9.60003C7.95617 11.7809 5.86234 13.25 3.5 13.25V11.25C5.12521 11.25 6.55352 10.1726 7 8.60992L7.16429 8.03491C7.37062 7.31277 8.2202 7.00048 8.8451 7.41708C10.1374 8.27861 11.8923 7.81256 12.5869 6.42338L12.9871 5.62309Z" fill="#1A1A1A"/>
<path fill-rule="evenodd" clip-rule="evenodd" d="M21.0278 23.4978C21.1186 24.0426 20.7507 24.559 20.204 24.6373C16.0893 25.2268 11.9115 25.2268 7.7968 24.6373C7.25009 24.559 6.8822 24.0426 6.97299 23.4978L7.02779 23.169C7.11859 22.6243 7.63369 22.2575 8.18049 22.3351C12.0411 22.8831 15.9597 22.8831 19.8203 22.3351C20.3671 22.2575 20.8822 22.6243 20.973 23.169L21.0278 23.4978Z" fill="#1A1A1A"/>
</svg>

<svg id="more" viewBox="0 0 28 28" fill="none" xmlns="http://www.w3.org/2000/svg">
<path d="M0 4C0 1.79086 1.79086 0 4 0H24C26.2091 0 28 1.79086 28 4V24C28 26.2091 26.2091 28 24 28H4C1.79086 28 0 26.2091 0 24V4Z" fill="white"/>
<path fill-rule="evenodd" clip-rule="evenodd" d="M19 9H9C6.23858 9 4 11.2386 4 14C4 16.7614 6.23858 19 9 19H19C21.7614 19 24 16.7614 24 14C24 11.2386 21.7614 9 19 9ZM9 7C5.13401 7 2 10.134 2 14C2 17.866 5.13401 21 9 21H19C22.866 21 26 17.866 26 14C26 10.134 22.866 7 19 7H9Z" fill="#1A1A1A"/>
<path d="M19.5 15.5C18.6716 15.5 18 14.8284 18 14C18 13.1716 18.6716 12.5 19.5 12.5C20.3284 12.5 21 13.1716 21 14C21 14.8284 20.3284 15.5 19.5 15.5Z" fill="#1A1A1A"/>
<path d="M14 15.5C13.1716 15.5 12.5 14.8284 12.5 14C12.5 13.1716 13.1716 12.5 14 12.5C14.8284 12.5 15.5 13.1716 15.5 14C15.5 14.8284 14.8284 15.5 14 15.5Z" fill="#1A1A1A"/>
<path d="M8.5 15.5C7.67157 15.5 7 14.8284 7 14C7 13.1716 7.67157 12.5 8.5 12.5C9.32843 12.5 10 13.1716 10 14C10 14.8284 9.32843 15.5 8.5 15.5Z" fill="#1A1A1A"/>
</svg>







