<?xml version="1.0" encoding="utf-8"?><svg xmlns="http://www.w3.org/2000/svg" xmlns:xlink="http://www.w3.org/1999/xlink"><symbol viewBox="0 0 24 24" id="account" xmlns="http://www.w3.org/2000/svg"><path fill-rule="evenodd" clip-rule="evenodd" d="M13.768 5.732a2.5 2.5 0 10-3.536 3.536 2.5 2.5 0 003.536-3.536zm3.702 11.624c-1.296-.648-3.227-1.106-5.47-1.106s-4.174.459-5.47 1.107C5.115 18.064 5 18.672 5 18.75c0 .138.112.25.25.25h13.5a.25.25 0 00.25-.25c0-.078-.115-.686-1.53-1.393zM15.182 4.319a4.5 4.5 0 10-6.364 6.364 4.5 4.5 0 006.364-6.364zM21 18.75c0-2.486-4.027-4.5-9-4.5s-9 2.014-9 4.5A2.25 2.25 0 005.25 21h13.5A2.25 2.25 0 0021 18.75z"/></symbol><symbol viewBox="0 0 24 24" id="arrowDown" xmlns="http://www.w3.org/2000/svg"><path fill-rule="evenodd" clip-rule="evenodd" d="M7.243 9.93a1 1 0 000 1.414l4.657 4.657 4.656-4.657a1 1 0 00-1.414-1.414L11.9 13.173 8.657 9.93a1 1 0 00-1.414 0z"/></symbol><symbol viewBox="0 0 24 24" id="filledCard" xmlns="http://www.w3.org/2000/svg"><path fill-rule="evenodd" clip-rule="evenodd" d="M0 2a1 1 0 011-1h3.5a1 1 0 01.966.74l.85 3.16H22a1 1 0 01.972 1.236l-1.84 7.572A3 3 0 0118.217 16H9.226A3 3 0 016.3 13.669L4.58 6.142 3.734 3H1a1 1 0 01-1-1zm6.805 4.9l1.446 6.323a1 1 0 00.975.777h8.991a1 1 0 00.972-.764L20.728 6.9H6.805z"/><path d="M18.217 15H9.226a2 2 0 01-1.95-1.554L5.55 5.9H22l-1.84 7.572A2 2 0 0118.218 15zM10 21.5a1.5 1.5 0 11-3 0 1.5 1.5 0 013 0zm10 0a1.5 1.5 0 11-3 0 1.5 1.5 0 013 0z"/><path fill-rule="evenodd" clip-rule="evenodd" d="M8.555 14.168a1 1 0 01.277 1.387L7.87 17H20a1 1 0 110 2H7.869c-1.598 0-2.55-1.78-1.665-3.11l.964-1.445a1 1 0 011.387-.277z"/></symbol><symbol viewBox="0 0 19 19" id="phone" xmlns="http://www.w3.org/2000/svg"><path fill-rule="evenodd" clip-rule="evenodd" d="M14.272 12.356l2.54.29c1.01.12 1.77.97 1.76 1.98l-.184 2.31c0 1.13-.94 2.07-2.07 2a16.916 16.916 0 01-6.206-1.598 17.054 17.054 0 01-8.561-9.186A16.915 16.915 0 01.428 3.046c-.07-1.13.87-2.07 2-2.07L4.929.763c1.02 0 1.87.76 1.99 1.77l.29 2.52c.07.61-.14 1.21-.57 1.64L4.018 8.756c1.44 2.84 3.76 5.15 6.59 6.59l2.024-2.42a1.99 1.99 0 011.64-.57zm-.219 1.988l2.512.287-.177 2.225v.08a14.934 14.934 0 01-3.858-.77l1.523-1.822zm-8.832-9.08L4.933 2.77l-2.42.206h-.085c.088 1.348.354 2.648.776 3.875L5.22 5.265z"/></symbol><symbol viewBox="0 0 24 24" id="pin" xmlns="http://www.w3.org/2000/svg"><path d="M12 6.5a2.5 2.5 0 010 5 2.5 2.5 0 010-5zM12 2c3.87 0 7 3.13 7 7 0 4.208-4.496 10.021-6.282 12.164a.926.926 0 01-1.436 0C9.496 19.02 5 13.208 5 9c0-3.87 3.13-7 7-7zm0 2C9.24 4 7 6.24 7 9c0 1 0 3 5 9.71C17 12 17 10 17 9c0-2.76-2.24-5-5-5z"/></symbol><symbol viewBox="0 0 24 24" id="search" xmlns="http://www.w3.org/2000/svg"><path fill-rule="evenodd" clip-rule="evenodd" d="M10.5 17a6.5 6.5 0 100-13 6.5 6.5 0 000 13zm0 2a8.5 8.5 0 100-17 8.5 8.5 0 000 17zm7.207-1.707a1 1 0 011.414 0l2.586 2.586a1 1 0 01-1.414 1.414l-2.586-2.586a1 1 0 010-1.414z"/></symbol><symbol viewBox="0 0 24 24" id="shoppingCart" xmlns="http://www.w3.org/2000/svg"><path fill-rule="evenodd" clip-rule="evenodd" d="M11.2 4.9H6.317l-.85-3.16A1 1 0 004.5 1H1a1 1 0 000 2h2.734l.845 3.142 1.722 7.527A3 3 0 009.226 16h8.991a3 3 0 002.915-2.292l.449-1.846a9.05 9.05 0 01-2.088.124l-.304 1.25a1 1 0 01-.972.764H9.226a1 1 0 01-.975-.777L6.805 6.9h5.082a8.934 8.934 0 01-.686-2zm10.642 5.887l1.13-4.651A1 1 0 0022 4.9h-9.773c.172.708.44 1.38.786 2h7.715l-.995 4.096a8.02 8.02 0 002.109-.209z"/><path d="M10 21.5a1.5 1.5 0 11-3 0 1.5 1.5 0 013 0zm10 0a1.5 1.5 0 11-3 0 1.5 1.5 0 013 0z"/><path fill-rule="evenodd" clip-rule="evenodd" d="M8.555 14.168a1 1 0 01.277 1.387L7.868 17H20a1 1 0 010 2H7.868c-1.597 0-2.55-1.78-1.664-3.11l.964-1.445a1 1 0 011.387-.277z"/></symbol></svg>